# xmcd
#
# Track frame offsets: 
#        150
#        38974
#        45838
#        82711
#        119538
#        133922
#        152859
#        180233
#        210675
#        227031
#
# Disc length: 3496 seconds
#
# Revision: 2
# Processed by: cddbd v1.5.1PL2 Copyright (c) Steve Scherf et al.
# Submitted via: ExactAudioCopy v0.95b4
#
DISCID=790da60a
DTITLE=Martin Auer - Horn an Horn
DYEAR=2003
DGENRE=Jazz
TTITLE0=Evan
TTITLE1=Wasserzeichen
TTITLE2=Ex 7.2
TTITLE3=Bica
TTITLE4=Exercise 13
TTITLE5=Watsoning
TTITLE6=Never Give Up
TTITLE7=Mr. Wu
TTITLE8=The End of a Book
TTITLE9=Woody and Wu
EXTD=
EXTT0=
EXTT1=
EXTT2=
EXTT3=
EXTT4=
EXTT5=
EXTT6=
EXTT7=
EXTT8=
EXTT9=
PLAYORDER=
